:SAMPLES-PER-SECOND 30
:FULLY-SPECIFIED
:DEGREES
62
root  -43.6974 15.3059 2.49022 103.366 64.8944 135.781
RightUpLeg  -38.5757 -0.0657813 -11.9677
RightLeg  146.412 23.1581 -6.24244
RightFoot  -37.7527 4.64941 21.0165
RightToes  2.85217e-009 -3.18055e-015 8.94531e-016
Spine  58.2072 -1.87796 2.42419
Spine1  16.5021 0.92602 -6.02249
HEad  -12.6872 -9.79591 3.79991
LeftShoulder1  0 -2.69403e-036 -1.28585e-037
LeftArm  -0.528419 -41.2061 -78.524
LeftForeArm  -124.897 -53.6392 164.63
LeftHand  -0.516211 2.39758 18.1833
RightShoulder  -2.48481e-017 0 -8.08114e-019
RightArm  -2.91879 33.6641 77.6547
RightForeArm  -92.6851 46.6462 -154.306
RightHand  1.72494 -11.4204 -13.4747
LeftUpLeg  -75.7806 0.192772 -20.741
LeftLeg  106.241 -12.3618 -3.63095
LeftFoot  -11.0361 0.182838 -10.4918
LeftToes  -3.29237e-010 -4.9359e-011 -7.59376e-011
63
root  -43.3534 14.9793 2.33669 103.11 65.8209 136.039
RightUpLeg  -36.6167 -1.42178 -11.2585
RightLeg  147.591 23.87 -6.31016
RightFoot  -38.7466 4.77105 20.7154
RightToes  2.85217e-009 -3.18055e-015 8.94531e-016
Spine  58.4116 -2.26239 3.26339
Spine1  16.9238 1.16596 -6.37976
HEad  -13.5729 -9.83262 3.59852
LeftShoulder1  0 -2.69403e-036 -1.28585e-037
LeftArm  -1.06146 -41.3759 -78.4533
LeftForeArm  -125.705 -53.3965 164.917
LeftHand  -0.477688 2.48974 17.9635
RightShoulder  -2.48481e-017 0 -8.08114e-019
RightArm  -2.74755 34.05 78.1609
RightForeArm  -92.7666 46.6378 -154.323
RightHand  1.64309 -11.1543 -12.9532
LeftUpLeg  -76.327 0.389257 -21.6197
LeftLeg  104 -12.5765 -3.04972
LeftFoot  -12.1257 0.0906303 -10.8036
LeftToes  -3.29237e-010 -4.9359e-011 -7.59376e-011
64
root  -43.0321 14.6734 2.1376 102.693 67.3507 135.282
RightUpLeg  -35.2879 -2.26316 -10.1749
RightLeg  148.701 24.3073 -6.21986
RightFoot  -40.7747 5.07627 20.3713
RightToes  2.85217e-009 -3.18055e-015 8.94531e-016
Spine  58.5314 -2.58424 3.90476
Spine1  17.1314 1.41774 -6.91338
HEad  -15.1058 -9.54232 3.49023
LeftShoulder1  0 -2.69403e-036 -1.28585e-037
LeftArm  -1.51748 -41.889 -78.257
LeftForeArm  -126.25 -53.0466 165.277
LeftHand  -0.481761 2.50822 18.1661
RightShoulder  -2.48481e-017 0 -8.08114e-019
RightArm  -2.41627 34.7146 78.6683
RightForeArm  -92.9125 46.5591 -154.438
RightHand  1.58647 -10.9796 -12.5013
LeftUpLeg  -76.9765 0.2192 -21.3303
LeftLeg  102.01 -13.0212 -1.3059
LeftFoot  -10.6188 0.19668 -9.32533
LeftToes  -3.29237e-010 -4.9359e-011 -7.59376e-011
65
root  -42.6465 14.4379 1.87568 102.039 69.7555 133.733
RightUpLeg  -34.0725 -2.67485 -8.46748
RightLeg  149.574 24.4354 -6.02467
RightFoot  -43.0556 5.49895 20.3149
RightToes  2.85217e-009 -3.18055e-015 8.94531e-016
Spine  58.6607 -2.89813 4.70289
Spine1  17.1392 1.60841 -7.18782
HEad  -17.4501 -8.95224 3.13006
LeftShoulder1  0 -2.69403e-036 -1.28585e-037
LeftArm  -2.28404 -42.7829 -77.9008
LeftForeArm  -126.789 -52.4942 165.806
LeftHand  -0.473086 2.56036 18.3202
RightShoulder  -2.48481e-017 0 -8.08114e-019
RightArm  -1.96692 35.7754 78.8937
RightForeArm  -92.5431 46.5004 -154.49
RightHand  1.53979 -10.7943 -12.3216
LeftUpLeg  -77.9134 -0.229889 -19.8496
LeftLeg  100.7 -13.7333 1.85689
LeftFoot  -5.69442 0.317652 -5.3955
LeftToes  -3.29237e-010 -4.9359e-011 -7.59376e-011
66
root  -42.1804 14.297 1.55257 100.928 72.7024 131.643
RightUpLeg  -32.5575 -2.9674 -6.86844
RightLeg  150.168 24.0121 -5.63123
RightFoot  -45.0449 5.74596 19.863
RightToes  2.85217e-009 -3.18055e-015 8.94531e-016
Spine  59.109 -3.09295 5.34294
Spine1  16.9672 1.54157 -6.88933
HEad  -20.2146 -8.06875 2.61989
LeftShoulder1  0 -2.69403e-036 -1.28585e-037
LeftArm  -3.4687 -43.9703 -77.3513
LeftForeArm  -127.412 -51.9733 166.3
LeftHand  -0.408049 2.74669 18.1305
RightShoulder  -2.48481e-017 0 -8.08114e-019
RightArm  -1.5055 37.0816 78.9804
RightForeArm  -91.922 46.5592 -154.369
RightHand  1.55011 -10.8033 -12.5339
LeftUpLeg  -79.2985 -0.982394 -17.5294
LeftLeg  100.834 -14.4426 4.71062
LeftFoot  -0.816081 0.209729 -1.87536
LeftToes  -3.29237e-010 -4.9359e-011 -7.59376e-011
67
root  -41.7225 14.2879 1.20409 98.9497 75.413 128.587
RightUpLeg  -31.6781 -3.24012 -6.51198
RightLeg  150.518 22.7807 -4.90601
RightFoot  -46.1545 5.49615 18.3485
RightToes  2.85217e-009 -3.18055e-015 8.94531e-016
Spine  59.9514 -2.9753 5.10768
Spine1  16.7321 1.20932 -6.31207
HEad  -22.8149 -6.95905 2.50612
LeftShoulder1  0 -2.69403e-036 -1.28585e-037
LeftArm  -4.57227 -45.4417 -76.754
LeftForeArm  -127.883 -51.7337 166.537
LeftHand  -0.357322 2.91126 18.1095
RightShoulder  -2.48481e-017 0 -8.08114e-019
RightArm  -1.21531 38.3491 79.0384
RightForeArm  -91.5516 46.7224 -154.125
RightHand  1.65784 -11.202 -13.0467
LeftUpLeg  -81.007 -1.98785 -15.0779
LeftLeg  102.097 -15.0599 6.39131
LeftFoot  0.576676 0.163631 -1.29156
LeftToes  -3.29237e-010 -4.9359e-011 -7.59376e-011
68
root  -41.3155 14.4507 0.86233 94.5593 77.4744 122.896
RightUpLeg  -32.207 -3.25592 -7.58629
RightLeg  150.539 20.9318 -3.95367
RightFoot  -45.7663 4.76615 16.1198
RightToes  2.85217e-009 -3.18055e-015 8.94531e-016
Spine  61.0644 -2.44147 3.87101
Spine1  16.4779 0.893271 -6.0276
HEad  -25.0072 -5.87997 2.96102
LeftShoulder1  0 -2.69403e-036 -1.28585e-037
LeftArm  -5.04155 -47.1639 -76.3819
LeftForeArm  -129.392 -51.5022 166.845
LeftHand  -0.303344 3.17019 18.7153
RightShoulder  -2.48481e-017 0 -8.08114e-019
RightArm  -1.23737 39.4523 78.8137
RightForeArm  -91.2909 46.8435 -153.942
RightHand  1.80701 -11.7435 -13.6869
LeftUpLeg  -82.3638 -2.73712 -13.064
LeftLeg  103.314 -15.5775 7.46017
LeftFoot  -0.584821 0.246904 -2.23189
LeftToes  -3.29237e-010 -4.9359e-011 -7.59376e-011
69
root  -40.8403 14.7219 0.503255 87.0483 79.6931 113.475
RightUpLeg  -33.4912 -3.28728 -8.41069
RightLeg  150.153 19.0473 -3.0538
RightFoot  -44.6087 3.92441 13.8069
RightToes  2.85217e-009 -3.18055e-015 8.94531e-016
Spine  61.4745 -1.9163 2.92496
Spine1  16.1607 0.93642 -6.31508
HEad  -26.6867 -5.12353 3.43211
LeftShoulder1  0 -2.69403e-036 -1.28585e-037
LeftArm  -5.04118 -48.766 -76.3028
LeftForeArm  -131.829 -51.1734 167.298
LeftHand  -0.220876 3.57084 19.817
RightShoulder  -2.48481e-017 0 -8.08114e-019
RightArm  -1.38808 40.3943 78.184
RightForeArm  -90.76 46.843 -153.906
RightHand  1.94498 -12.1787 -14.4514
LeftUpLeg  -83.7683 -3.04035 -10.9166
LeftLeg  104.251 -16.077 8.45829
LeftFoot  -1.41892 0.210535 -2.04633
LeftToes  -3.29237e-010 -4.9359e-011 -7.59376e-011
70
root  -40.2298 15.0322 0.11461 75.2305 82.3485 99.3362
RightUpLeg  -34.3483 -3.49039 -8.27907
RightLeg  149.385 17.1384 -2.15611
RightFoot  -43.5809 3.2104 11.7029
RightToes  2.85217e-009 -3.18055e-015 8.94531e-016
Spine  60.9854 -1.75857 2.99058
Spine1  15.6378 1.22223 -6.80796
HEad  -27.5386 -4.65798 3.37471
LeftShoulder1  0 -2.69403e-036 -1.28585e-037
LeftArm  -5.2591 -49.7639 -76.244
LeftForeArm  -132.75 -51.1304 167.403
LeftHand  -0.20446 3.74169 20.8702
RightShoulder  -2.48481e-017 0 -8.08114e-019
RightArm  -1.26383 41.1331 77.5095
RightForeArm  -90.0486 46.8372 -153.865
RightHand  2.10731 -12.6616 -15.3176
LeftUpLeg  -85.4482 -3.15074 -8.31601
LeftLeg  105.376 -16.6257 9.36215
LeftFoot  -1.63983 0.0618198 -0.647833
LeftToes  -3.29237e-010 -4.9359e-011 -7.59376e-011
71
root  -39.5747 15.4077 -0.267409 57.6664 84.5399 79.5997
RightUpLeg  -34.3956 -3.33875 -8.39099
RightLeg  148.243 14.4208 -0.752465
RightFoot  -43.0201 2.72762 10.1447
RightToes  2.85217e-009 -3.18055e-015 8.94531e-016
Spine  60.3497 -1.81642 3.31052
Spine1  15.001 1.3534 -7.08209
HEad  -27.4592 -4.1581 2.98899
LeftShoulder1  0 -2.69403e-036 -1.28585e-037
LeftArm  -5.81976 -50.1884 -76.0063
LeftForeArm  -131.815 -51.3026 167.193
LeftHand  -0.268284 3.62073 21.5201
RightShoulder  -2.48481e-017 0 -8.08114e-019
RightArm  -0.850798 41.6903 77.0964
RightForeArm  -89.441 46.9154 -153.717
RightHand  2.30273 -13.2809 -16.0474
LeftUpLeg  -86.7265 -3.35874 -5.94653
LeftLeg  106.605 -17.1824 10.1003
LeftFoot  -2.8403 -0.0324097 0.265244
LeftToes  -3.29237e-010 -4.9359e-011 -7.59376e-011
72
root  -38.9384 15.8987 -0.625495 35.8472 85.9126 55.5141
RightUpLeg  -34.379 -2.64991 -9.01309
RightLeg  146.56 10.8987 1.29773
RightFoot  -42.4845 2.49749 9.46342
RightToes  2.85217e-009 -3.18055e-015 8.94531e-016
Spine  59.4665 -2.00794 3.4485
Spine1  14.6672 1.2697 -7.30012
HEad  -27.019 -3.50028 2.86181
LeftShoulder1  0 -2.69403e-036 -1.28585e-037
LeftArm  -6.18741 -50.5622 -75.6986
LeftForeArm  -130.2 -51.3476 167.033
LeftHand  -0.303687 3.48024 21.2145
RightShoulder  -2.48481e-017 0 -8.08114e-019
RightArm  -0.650889 42.249 76.7371
RightForeArm  -88.9262 46.9541 -153.629
RightHand  2.4331 -13.6937 -16.468
LeftUpLeg  -87.5711 -3.90755 -4.14384
LeftLeg  107.469 -17.6736 10.7967
LeftFoot  -5.11477 -0.0287244 0.159453
LeftToes  -3.29237e-010 -4.9359e-011 -7.59376e-011
73
root  -38.3315 16.5501 -0.95521 15.679 86.497 33.3456
RightUpLeg  -34.1605 -1.68496 -9.79759
RightLeg  144.109 7.7813 3.42584
RightFoot  -41.173 2.31699 9.2042
RightToes  2.85217e-009 -3.18055e-015 8.94531e-016
Spine  58.8729 -2.12973 3.17991
Spine1  14.5516 1.07981 -7.4959
HEad  -26.9118 -2.94668 3.12097
LeftShoulder1  0 -2.69403e-036 -1.28585e-037
LeftArm  -6.36984 -51.1588 -75.3665
LeftForeArm  -128.492 -51.3012 166.941
LeftHand  -0.297789 3.33958 19.8934
RightShoulder  -2.48481e-017 0 -8.08114e-019
RightArm  -0.90471 42.8944 76.1874
RightForeArm  -88.4075 46.8668 -153.714
RightHand  2.45816 -13.7065 -16.7897
LeftUpLeg  -87.2147 -4.56508 -3.22892
LeftLeg  107.517 -18.0122 11.5834
LeftFoot  -7.4152 -0.0173952 -0.0869597
LeftToes  -3.29237e-010 -4.9359e-011 -7.59376e-011
74
root  -37.731 17.3615 -1.24447 2.51967 86.5883 19.1607
RightUpLeg  -32.6791 -0.837121 -10.4311
RightLeg  140.925 5.9864 5.06074
RightFoot  -39.8706 2.08668 8.70492
RightToes  2.85217e-009 -3.18055e-015 8.94531e-016
Spine  59.3655 -1.90924 2.41427
Spine1  14.1632 0.870566 -7.35628
HEad  -27.1183 -2.74115 3.48206
LeftShoulder1  0 -2.69403e-036 -1.28585e-037
LeftArm  -6.66223 -51.6982 -75.0078
LeftForeArm  -127.195 -51.3969 166.765
LeftHand  -0.293609 3.179 18.5368
RightShoulder  -2.48481e-017 0 -8.08114e-019
RightArm  -1.23429 43.334 75.6865
RightForeArm  -88.0305 46.8097 -153.766
RightHand  2.49276 -13.7052 -17.3016
LeftUpLeg  -84.8554 -4.92542 -3.23546
LeftLeg  106.836 -18.1565 12.3855
LeftFoot  -9.71444 -0.0284275 0.0151269
LeftToes  -3.29237e-010 -4.9359e-011 -7.59376e-011
